<svg width="49" height="39" viewBox="0 0 49 39" fill="none" xmlns="http://www.w3.org/2000/svg">
<path d="M46.2846 0H2.43603C1.78996 0 1.17034 0.256653 0.713497 0.713498C0.256653 1.17034 0 1.78996 0 2.43603V36.5405C0 37.1866 0.256653 37.8062 0.713497 38.263C1.17034 38.7199 1.78996 38.9765 2.43603 38.9765H46.2846C46.9307 38.9765 47.5503 38.7199 48.0071 38.263C48.464 37.8062 48.7206 37.1866 48.7206 36.5405V2.43603C48.7206 1.78996 48.464 1.17034 48.0071 0.713498C47.5503 0.256653 46.9307 0 46.2846 0ZM43.8486 26.7964C41.9103 26.7964 40.0515 27.5663 38.681 28.9368C37.3104 30.3074 36.5405 32.1662 36.5405 34.1045H12.1802C12.1802 32.1662 11.4102 30.3074 10.0397 28.9368C8.66913 27.5663 6.81029 26.7964 4.87206 26.7964V12.1802C6.81029 12.1802 8.66913 11.4102 10.0397 10.0397C11.4102 8.66914 12.1802 6.81029 12.1802 4.87206H36.5405C36.5405 6.81029 37.3104 8.66914 38.681 10.0397C40.0515 11.4102 41.9103 12.1802 43.8486 12.1802V26.7964Z" fill="#222222"/>
<path d="M24.3603 9.74414C18.9864 9.74414 14.6162 14.1144 14.6162 19.4883C14.6162 24.8622 18.9864 29.2324 24.3603 29.2324C29.7342 29.2324 34.1044 24.8622 34.1044 19.4883C34.1044 14.1144 29.7342 9.74414 24.3603 9.74414ZM24.3603 24.3603C21.6734 24.3603 19.4882 22.1752 19.4882 19.4883C19.4882 16.8013 21.6734 14.6162 24.3603 14.6162C27.0473 14.6162 29.2324 16.8013 29.2324 19.4883C29.2324 22.1752 27.0473 24.3603 24.3603 24.3603Z" fill="#222222"/>
</svg>
