<svg width="46" height="43" viewBox="0 0 46 43" fill="none" xmlns="http://www.w3.org/2000/svg">
<path d="M42.6493 8.31332L42.6832 8.27271L32.9989 0.532722L29.9484 4.24505L34.9527 8.24405C33.7126 8.98744 32.7275 10.0814 32.1253 11.3841C31.523 12.6867 31.3314 14.1379 31.5754 15.5493C31.9361 17.6969 33.4299 19.553 35.3643 20.5946C37.536 21.7651 39.4438 21.66 41.1361 21.0652L41.0998 35.8333C41.1027 36.2289 41.0056 36.6189 40.8173 36.9681C40.6291 37.3174 40.3555 37.6147 40.0214 37.8334C39.6873 38.0521 39.3032 38.1851 38.9039 38.2204C38.5047 38.2558 38.1027 38.1923 37.7345 38.0358C37.4461 37.9141 37.1846 37.7381 36.9646 37.5174C36.7408 37.2962 36.5634 37.0335 36.4425 36.7445C36.3216 36.4556 36.2596 36.1459 36.2601 35.8333L36.3158 31.0555C36.3182 30.1152 36.1319 29.1837 35.7674 28.3149C35.403 27.446 34.8677 26.657 34.1925 25.9935C33.5181 25.3265 32.7169 24.7973 31.835 24.4362C30.953 24.075 30.0075 23.8891 29.0526 23.8889H26.6316V4.77777C26.6316 2.14283 24.4599 0 21.7895 0H4.84211C2.17168 0 0 2.14283 0 4.77777V38.2222C0 40.8571 2.17168 42.9999 4.84211 42.9999H21.7895C24.4599 42.9999 26.6316 40.8571 26.6316 38.2222V28.6666H29.0526C29.3819 28.6666 29.6991 28.7311 29.9993 28.853C30.5755 29.1019 31.0348 29.5568 31.2848 30.1262C31.4104 30.4203 31.4747 30.7364 31.4737 31.0555L31.4156 35.8333C31.4156 36.8032 31.6068 37.742 31.9869 38.6235C32.3525 39.4811 32.8779 40.2479 33.5388 40.8953C34.2109 41.5655 35.0116 42.0968 35.8941 42.4582C36.7766 42.8195 37.7233 43.0037 38.6787 42.9999C39.6617 42.9999 40.6107 42.8136 41.5065 42.4362C42.3733 42.0778 43.1528 41.5594 43.8089 40.9049C44.4867 40.2407 45.0242 39.4505 45.3904 38.5799C45.7565 37.7094 45.944 36.7758 45.9419 35.8333L46 14.3333C45.9976 13.1332 45.6895 11.9529 45.104 10.901C44.5185 9.84906 43.6744 8.95924 42.6493 8.31332ZM4.84211 4.77777H21.7895L21.7919 14.3333H4.84211V4.77777ZM4.84211 38.2222V19.1111H21.7919L21.7943 38.2222H4.84211ZM38.7368 16.7222C38.0947 16.7222 37.4789 16.4705 37.0249 16.0225C36.5709 15.5745 36.3158 14.9669 36.3158 14.3333C36.3158 13.6997 36.5709 13.0921 37.0249 12.6441C37.4789 12.1961 38.0947 11.9444 38.7368 11.9444C39.3789 11.9444 39.9948 12.1961 40.4488 12.6441C40.9028 13.0921 41.1579 13.6997 41.1579 14.3333C41.1579 14.9669 40.9028 15.5745 40.4488 16.0225C39.9948 16.4705 39.3789 16.7222 38.7368 16.7222Z" fill="#222222"/>
</svg>
